<?xml version="1.0" standalone="no"?>
<!DOCTYPE svg PUBLIC "-//W3C//DTD SVG 20010904//EN"
 "http://www.w3.org/TR/2001/REC-SVG-20010904/DTD/svg10.dtd">
<svg version="1.0" xmlns="http://www.w3.org/2000/svg"
 width="1566.000000pt" height="1426.000000pt" viewBox="0 0 1566.000000 1426.000000"
 preserveAspectRatio="xMidYMid meet">

<g transform="translate(0.000000,1426.000000) scale(0.100000,-0.100000)"
fill="#000000" stroke="none">
<path d="M6035 12333 c-209 -33 -412 -142 -585 -313 -242 -239 -457 -677 -530
-1080 -35 -191 -38 -218 -51 -407 -9 -143 -9 -218 0 -355 13 -177 47 -406 77
-513 9 -33 20 -76 25 -95 5 -19 18 -60 29 -90 12 -30 30 -82 42 -115 70 -201
239 -475 386 -624 169 -171 277 -243 454 -303 123 -42 123 -43 273 -43 136 0
159 3 244 28 225 67 391 188 575 416 156 194 267 402 349 656 184 570 176
1235 -21 1791 -48 135 -151 347 -228 469 -170 271 -441 491 -689 560 -60 16
-289 28 -350 18z"/>
<path d="M9235 12334 c-213 -35 -397 -136 -586 -324 -130 -130 -212 -245 -300
-420 -133 -267 -207 -481 -234 -680 -8 -58 -19 -136 -26 -175 -6 -38 -15 -97
-20 -130 -5 -33 -9 -140 -9 -238 0 -146 5 -216 30 -390 36 -249 71 -394 139
-574 89 -235 164 -374 290 -538 119 -155 293 -306 438 -379 159 -80 392 -116
545 -85 70 14 221 65 280 95 73 37 237 165 308 241 161 170 314 424 399 658
133 367 196 857 157 1215 -53 476 -129 729 -325 1075 -173 306 -466 558 -726
626 -79 20 -291 34 -360 23z"/>
<path d="M3381 9495 c-211 -48 -342 -120 -511 -281 -234 -223 -415 -627 -450
-999 -15 -160 -12 -430 5 -579 41 -352 162 -684 361 -987 71 -110 112 -159
228 -275 234 -233 447 -350 704 -385 110 -15 309 -1 432 31 206 53 430 230
588 465 138 204 222 416 267 676 22 129 25 174 25 385 -1 229 -2 246 -34 414
-37 192 -107 416 -185 590 -166 367 -482 708 -796 856 -174 83 -476 125 -634
89z"/>
<path d="M11810 9495 c-232 -33 -409 -119 -617 -297 -165 -141 -281 -282 -406
-493 -105 -178 -169 -337 -227 -565 -55 -215 -65 -308 -65 -615 0 -278 0 -281
32 -427 41 -187 70 -273 147 -428 91 -183 146 -262 266 -382 144 -143 246
-207 413 -258 182 -55 457 -53 625 4 361 123 674 421 886 843 113 226 170 396
205 613 12 69 25 153 31 186 5 34 10 147 10 251 0 375 -62 648 -220 964 -52
103 -162 253 -248 336 -118 115 -296 215 -462 258 -88 22 -254 27 -370 10z"/>
<path d="M7025 7949 c-254 -28 -604 -159 -845 -317 -141 -92 -223 -164 -320
-280 -224 -267 -309 -503 -355 -983 -15 -153 -27 -222 -100 -564 -31 -147 -36
-184 -33 -276 3 -100 5 -108 33 -145 39 -51 73 -80 154 -130 87 -54 166 -82
259 -93 94 -11 267 -6 342 10 73 15 219 91 290 150 99 82 190 230 225 364 21
81 72 369 85 478 6 49 24 158 40 243 50 265 105 414 153 414 41 0 50 -14 44
-66 -12 -116 -66 -464 -73 -475 -4 -7 -25 -176 -44 -354 -35 -328 -66 -450
-147 -577 -93 -145 -248 -261 -424 -317 -136 -43 -232 -54 -419 -48 -261 9
-345 26 -501 101 -88 42 -115 68 -197 191 -97 145 -158 195 -241 195 -43 0
-61 -13 -181 -129 -100 -97 -265 -230 -356 -286 -283 -175 -424 -273 -501
-351 -129 -130 -229 -298 -269 -456 -20 -77 -22 -284 -5 -378 24 -127 132
-379 204 -478 116 -157 567 -535 877 -734 30 -19 100 -64 155 -100 291 -188
722 -409 1003 -515 209 -78 588 -198 722 -228 309 -68 442 -77 1175 -79 644
-1 651 0 730 22 95 26 115 45 115 111 0 37 -9 63 -45 125 -74 131 -217 309
-343 428 -115 108 -325 240 -484 303 -86 34 -88 45 -42 171 60 166 92 273 124
414 68 303 89 569 90 1163 0 292 1 300 25 373 33 99 62 154 141 272 143 212
315 345 488 377 45 9 104 20 131 25 71 14 193 22 510 35 149 7 182 6 191 -6
13 -16 0 -229 -16 -259 -6 -12 -52 -31 -127 -55 -122 -38 -232 -96 -286 -149
-17 -17 -50 -73 -73 -123 -47 -100 -68 -120 -150 -143 -79 -22 -93 -68 -59
-200 40 -156 96 -225 292 -355 137 -91 159 -122 173 -246 12 -102 4 -323 -16
-439 -8 -47 -30 -141 -49 -210 -92 -339 -88 -507 19 -771 32 -81 118 -244 156
-299 10 -14 53 -86 97 -160 44 -74 99 -168 124 -209 24 -41 52 -88 62 -105 36
-64 78 -71 204 -32 43 13 100 29 128 36 27 6 138 42 245 80 107 37 237 82 288
99 313 108 871 391 1197 609 119 80 235 188 235 219 0 51 -171 179 -457 341
-274 156 -332 203 -516 414 -31 37 -96 95 -145 129 -155 111 -175 131 -202
200 -34 88 -33 203 4 354 64 256 41 429 -77 594 -64 88 -61 74 -68 386 -6 298
-16 378 -50 426 -23 33 -76 45 -118 27 -47 -20 -297 -234 -322 -276 -42 -69
-79 -110 -109 -121 -30 -10 -31 -10 -83 72 -29 45 -70 116 -92 157 -31 61 -56
104 -81 138 -1 2 -24 9 -50 16 l-47 12 68 12 c37 7 84 21 105 32 58 29 172
178 243 315 104 202 170 371 183 468 12 84 -34 170 -109 205 -23 11 -87 30
-142 42 -189 42 -315 95 -735 305 -429 214 -456 231 -561 346 -235 258 -530
431 -859 504 -88 20 -474 29 -605 14z"/>
</g>
</svg>
