<?xml version="1.0" encoding="UTF-8"?>
<svg xmlns="http://www.w3.org/2000/svg" xmlns:xlink="http://www.w3.org/1999/xlink" width="20px" height="18px" viewBox="0 0 19 18" version="1.1">
<g id="surface1">
<path style=" stroke:none;fill-rule:nonzero;fill:rgb(0%,0%,0%);fill-opacity:1;" d="M 7.320312 2.433594 C 7.066406 2.472656 6.820312 2.609375 6.609375 2.828125 C 6.316406 3.128906 6.054688 3.679688 5.96875 4.191406 C 5.925781 4.429688 5.921875 4.464844 5.90625 4.703125 C 5.894531 4.882812 5.894531 4.976562 5.90625 5.152344 C 5.921875 5.375 5.964844 5.664062 6 5.796875 C 6.011719 5.839844 6.023438 5.894531 6.03125 5.917969 C 6.035156 5.941406 6.050781 5.992188 6.066406 6.03125 C 6.078125 6.070312 6.101562 6.136719 6.117188 6.175781 C 6.199219 6.429688 6.40625 6.777344 6.585938 6.964844 C 6.789062 7.179688 6.921875 7.269531 7.132812 7.347656 C 7.285156 7.398438 7.285156 7.402344 7.464844 7.402344 C 7.628906 7.402344 7.660156 7.398438 7.761719 7.367188 C 8.035156 7.28125 8.234375 7.128906 8.460938 6.839844 C 8.648438 6.597656 8.78125 6.332031 8.882812 6.011719 C 9.105469 5.292969 9.097656 4.453125 8.855469 3.753906 C 8.800781 3.582031 8.675781 3.316406 8.582031 3.160156 C 8.375 2.820312 8.046875 2.542969 7.746094 2.453125 C 7.671875 2.433594 7.394531 2.417969 7.320312 2.433594 Z M 7.320312 2.433594 "/>
<path style=" stroke:none;fill-rule:nonzero;fill:rgb(0%,0%,0%);fill-opacity:1;" d="M 11.203125 2.429688 C 10.945312 2.476562 10.71875 2.601562 10.492188 2.839844 C 10.332031 3.003906 10.234375 3.148438 10.128906 3.371094 C 9.964844 3.707031 9.875 3.976562 9.84375 4.226562 C 9.832031 4.300781 9.820312 4.398438 9.8125 4.449219 C 9.804688 4.496094 9.792969 4.570312 9.789062 4.613281 C 9.78125 4.652344 9.777344 4.789062 9.777344 4.914062 C 9.777344 5.097656 9.78125 5.183594 9.8125 5.40625 C 9.855469 5.71875 9.898438 5.902344 9.980469 6.128906 C 10.089844 6.425781 10.179688 6.601562 10.332031 6.808594 C 10.476562 7.003906 10.6875 7.195312 10.863281 7.285156 C 11.058594 7.386719 11.339844 7.433594 11.527344 7.394531 C 11.609375 7.375 11.792969 7.3125 11.867188 7.273438 C 11.953125 7.226562 12.152344 7.066406 12.238281 6.96875 C 12.433594 6.753906 12.621094 6.433594 12.722656 6.140625 C 12.882812 5.675781 12.960938 5.058594 12.914062 4.605469 C 12.847656 4.003906 12.757812 3.6875 12.519531 3.25 C 12.308594 2.863281 11.953125 2.546875 11.636719 2.460938 C 11.542969 2.433594 11.285156 2.417969 11.203125 2.429688 Z M 11.203125 2.429688 "/>
<path style=" stroke:none;fill-rule:nonzero;fill:rgb(0%,0%,0%);fill-opacity:1;" d="M 4.101562 6.011719 C 3.84375 6.074219 3.6875 6.164062 3.480469 6.367188 C 3.199219 6.648438 2.976562 7.160156 2.933594 7.628906 C 2.917969 7.832031 2.921875 8.171875 2.941406 8.359375 C 2.992188 8.804688 3.136719 9.222656 3.378906 9.605469 C 3.464844 9.742188 3.515625 9.804688 3.65625 9.953125 C 3.941406 10.246094 4.199219 10.394531 4.511719 10.4375 C 4.644531 10.457031 4.882812 10.4375 5.035156 10.398438 C 5.285156 10.332031 5.554688 10.109375 5.746094 9.8125 C 5.914062 9.554688 6.015625 9.285156 6.070312 8.957031 C 6.097656 8.796875 6.101562 8.738281 6.101562 8.472656 C 6.101562 8.183594 6.097656 8.160156 6.058594 7.949219 C 6.015625 7.707031 5.929688 7.425781 5.835938 7.207031 C 5.632812 6.742188 5.25 6.3125 4.871094 6.125 C 4.660156 6.019531 4.292969 5.96875 4.101562 6.011719 Z M 4.101562 6.011719 "/>
<path style=" stroke:none;fill-rule:nonzero;fill:rgb(0%,0%,0%);fill-opacity:1;" d="M 14.324219 6.011719 C 14.042969 6.054688 13.828125 6.164062 13.578125 6.386719 C 13.375 6.566406 13.234375 6.742188 13.085938 7.011719 C 12.957031 7.234375 12.878906 7.433594 12.808594 7.722656 C 12.742188 7.996094 12.730469 8.113281 12.730469 8.5 C 12.730469 8.851562 12.730469 8.855469 12.769531 9.039062 C 12.820312 9.273438 12.855469 9.382812 12.949219 9.578125 C 13.058594 9.808594 13.125 9.910156 13.269531 10.058594 C 13.445312 10.242188 13.566406 10.320312 13.769531 10.386719 C 13.992188 10.453125 14.324219 10.453125 14.527344 10.378906 C 14.96875 10.226562 15.347656 9.847656 15.605469 9.316406 C 15.742188 9.03125 15.808594 8.816406 15.851562 8.542969 C 15.867188 8.457031 15.882812 8.351562 15.890625 8.308594 C 15.894531 8.265625 15.902344 8.121094 15.902344 7.992188 C 15.902344 7.519531 15.828125 7.175781 15.636719 6.773438 C 15.570312 6.644531 15.4375 6.457031 15.335938 6.351562 C 15.191406 6.207031 14.976562 6.078125 14.773438 6.027344 C 14.667969 5.996094 14.464844 5.992188 14.324219 6.011719 Z M 14.324219 6.011719 "/>
<path style=" stroke:none;fill-rule:nonzero;fill:rgb(0%,0%,0%);fill-opacity:1;" d="M 8.519531 7.964844 C 8.214844 8 7.789062 8.164062 7.496094 8.363281 C 7.324219 8.480469 7.226562 8.570312 7.109375 8.71875 C 6.835938 9.054688 6.734375 9.351562 6.675781 9.957031 C 6.660156 10.152344 6.644531 10.238281 6.554688 10.667969 C 6.519531 10.855469 6.511719 10.902344 6.515625 11.019531 C 6.519531 11.144531 6.523438 11.152344 6.554688 11.199219 C 6.601562 11.265625 6.644531 11.300781 6.742188 11.363281 C 6.847656 11.433594 6.945312 11.46875 7.058594 11.480469 C 7.171875 11.496094 7.382812 11.488281 7.472656 11.46875 C 7.558594 11.449219 7.738281 11.355469 7.824219 11.28125 C 7.945312 11.175781 8.054688 10.988281 8.097656 10.820312 C 8.121094 10.71875 8.183594 10.355469 8.199219 10.21875 C 8.207031 10.15625 8.230469 10.019531 8.25 9.910156 C 8.308594 9.578125 8.375 9.386719 8.433594 9.386719 C 8.484375 9.386719 8.496094 9.40625 8.488281 9.472656 C 8.472656 9.617188 8.40625 10.058594 8.398438 10.070312 C 8.394531 10.082031 8.367188 10.292969 8.34375 10.519531 C 8.304688 10.933594 8.265625 11.085938 8.167969 11.246094 C 8.054688 11.429688 7.867188 11.574219 7.652344 11.644531 C 7.488281 11.699219 7.371094 11.714844 7.144531 11.707031 C 6.828125 11.695312 6.726562 11.675781 6.535156 11.578125 C 6.429688 11.527344 6.398438 11.492188 6.296875 11.339844 C 6.179688 11.15625 6.105469 11.09375 6.003906 11.09375 C 5.953125 11.09375 5.929688 11.109375 5.785156 11.253906 C 5.664062 11.378906 5.464844 11.546875 5.355469 11.617188 C 5.011719 11.835938 4.839844 11.960938 4.746094 12.058594 C 4.589844 12.222656 4.46875 12.433594 4.421875 12.632812 C 4.394531 12.730469 4.394531 12.992188 4.414062 13.113281 C 4.441406 13.273438 4.574219 13.589844 4.660156 13.714844 C 4.800781 13.914062 5.347656 14.390625 5.726562 14.640625 C 5.761719 14.664062 5.847656 14.722656 5.914062 14.765625 C 6.265625 15.003906 6.789062 15.28125 7.128906 15.417969 C 7.382812 15.515625 7.84375 15.667969 8.003906 15.703125 C 8.378906 15.789062 8.542969 15.800781 9.429688 15.804688 C 10.210938 15.804688 10.21875 15.804688 10.316406 15.777344 C 10.429688 15.742188 10.457031 15.71875 10.457031 15.636719 C 10.457031 15.589844 10.445312 15.558594 10.402344 15.480469 C 10.3125 15.3125 10.136719 15.089844 9.984375 14.9375 C 9.84375 14.800781 9.589844 14.636719 9.398438 14.554688 C 9.292969 14.511719 9.292969 14.5 9.347656 14.339844 C 9.421875 14.132812 9.457031 13.996094 9.496094 13.816406 C 9.578125 13.4375 9.605469 13.101562 9.605469 12.351562 C 9.605469 11.980469 9.609375 11.972656 9.636719 11.878906 C 9.675781 11.753906 9.710938 11.683594 9.808594 11.535156 C 9.980469 11.269531 10.191406 11.101562 10.398438 11.0625 C 10.453125 11.050781 10.527344 11.035156 10.558594 11.027344 C 10.644531 11.011719 10.792969 11 11.175781 10.984375 C 11.359375 10.976562 11.398438 10.976562 11.410156 10.992188 C 11.425781 11.011719 11.410156 11.28125 11.390625 11.320312 C 11.382812 11.335938 11.328125 11.359375 11.234375 11.390625 C 11.085938 11.4375 10.953125 11.511719 10.890625 11.578125 C 10.867188 11.597656 10.828125 11.667969 10.800781 11.730469 C 10.742188 11.859375 10.71875 11.882812 10.617188 11.914062 C 10.523438 11.941406 10.503906 12 10.546875 12.164062 C 10.59375 12.363281 10.664062 12.449219 10.902344 12.613281 C 11.066406 12.726562 11.09375 12.765625 11.109375 12.921875 C 11.125 13.050781 11.117188 13.332031 11.089844 13.476562 C 11.082031 13.535156 11.054688 13.65625 11.03125 13.742188 C 10.921875 14.171875 10.925781 14.382812 11.054688 14.714844 C 11.09375 14.816406 11.199219 15.023438 11.246094 15.09375 C 11.257812 15.109375 11.308594 15.199219 11.363281 15.292969 C 11.414062 15.386719 11.480469 15.507812 11.511719 15.558594 C 11.542969 15.609375 11.574219 15.667969 11.585938 15.691406 C 11.632812 15.769531 11.683594 15.78125 11.835938 15.730469 C 11.886719 15.714844 11.957031 15.695312 11.988281 15.6875 C 12.023438 15.679688 12.15625 15.632812 12.289062 15.585938 C 12.417969 15.539062 12.574219 15.480469 12.636719 15.460938 C 13.015625 15.324219 13.691406 14.964844 14.089844 14.691406 C 14.234375 14.589844 14.375 14.453125 14.375 14.414062 C 14.375 14.351562 14.167969 14.1875 13.820312 13.984375 C 13.488281 13.789062 13.417969 13.726562 13.195312 13.460938 C 13.15625 13.414062 13.078125 13.34375 13.019531 13.300781 C 12.828125 13.160156 12.804688 13.132812 12.773438 13.046875 C 12.730469 12.9375 12.734375 12.789062 12.777344 12.601562 C 12.855469 12.277344 12.828125 12.058594 12.683594 11.851562 C 12.605469 11.738281 12.609375 11.757812 12.601562 11.363281 C 12.59375 10.988281 12.582031 10.886719 12.539062 10.824219 C 12.511719 10.785156 12.449219 10.769531 12.398438 10.792969 C 12.339844 10.816406 12.039062 11.085938 12.007812 11.140625 C 11.957031 11.226562 11.910156 11.277344 11.875 11.292969 C 11.839844 11.304688 11.835938 11.304688 11.773438 11.203125 C 11.738281 11.144531 11.6875 11.054688 11.664062 11.003906 C 11.625 10.925781 11.59375 10.871094 11.566406 10.828125 C 11.5625 10.828125 11.535156 10.820312 11.503906 10.808594 L 11.445312 10.792969 L 11.53125 10.78125 C 11.574219 10.769531 11.632812 10.753906 11.65625 10.738281 C 11.726562 10.703125 11.867188 10.515625 11.953125 10.339844 C 12.078125 10.085938 12.15625 9.875 12.171875 9.75 C 12.1875 9.644531 12.132812 9.535156 12.042969 9.492188 C 12.011719 9.476562 11.9375 9.453125 11.867188 9.4375 C 11.640625 9.386719 11.488281 9.320312 10.976562 9.054688 C 10.457031 8.785156 10.425781 8.761719 10.296875 8.617188 C 10.011719 8.292969 9.652344 8.074219 9.253906 7.980469 C 9.148438 7.957031 8.679688 7.945312 8.519531 7.964844 Z M 8.519531 7.964844 "/>
</g>
</svg>
